<?xml version="1.0" encoding="UTF-8"?>
<svg id="Copia" xmlns="http://www.w3.org/2000/svg" viewBox="0 0 990 990">
  <defs>
    <style>
      .cls-1 {
        fill: #020202;
      }

      .cls-2 {
        fill: #fff;
      }

      .cls-3 {
        fill: #ef9e27;
      }
    </style>
  </defs>
  <rect class="cls-1" x="-38.39" y="-43.81" width="1067.81" height="1067.81"/>
  <polygon class="cls-2" points="311.49 196.65 304.69 403.04 170.64 505.16 215.63 278.3 311.49 196.65"/>
  <polygon class="cls-2" points="484.36 54.79 484.03 271.26 315.45 399.69 322.22 192.92 484.36 54.79"/>
  <polygon class="cls-2" points="483.47 640.39 483.03 934.5 298.32 934.83 303.51 776.2 483.47 640.39"/>
  <polygon class="cls-2" points="292.7 779.57 287.58 934.85 87.85 935.21 88.11 933.96 292.7 779.57"/>
  <polygon class="cls-2" points="304.53 414.33 292.86 768.18 292.86 768.2 89.2 922.08 169.48 517.35 304.53 414.33"/>
  <polygon class="cls-3" points="671.53 934.81 499.21 934.5 498.05 642.68 668.84 767.07 671.53 934.81"/>
  <polygon class="cls-3" points="902.15 935.21 681.67 934.81 678.97 769.81 901.48 931.89 901.5 931.89 902.15 935.21"/>
  <polygon class="cls-3" points="900.38 920 678.88 758.54 673.07 404.22 818.56 507.45 900.38 920"/>
  <polygon class="cls-3" points="663.04 390.62 496.61 272.65 495.73 54.79 659.83 189.5 663.04 390.62"/>
  <polygon class="cls-3" points="817.47 495.56 673 393.16 669.71 192.39 774.36 278.3 817.47 495.56"/>
  <polygon class="cls-3" points="668.76 755.8 498.02 631.36 496.62 283.55 663.12 401.68 668.76 755.8"/>
  <polygon class="cls-2" points="484.02 282.24 483.49 628.96 303.69 764.81 315.27 410.96 484.02 282.24"/>
</svg>